<svg xmlns="http://www.w3.org/2000/svg" fill="none" viewBox="0 0 128 128">
    <path id="path1" fill="#000000" fill-rule="evenodd" stroke="none" d="M 4 107 C 4 116.38884 11.611159 124 21 124 L 107 124 C 116.38884 124 124 116.38884 124 107 L 124 21 C 124 11.61116 116.38884 4 107 4 L 21 4 C 11.611159 4 4 11.61116 4 21 Z"/>
    <path id="path2" fill="#ffffff" fill-rule="evenodd" stroke="none" d="M 41.489738 111.261002 C 41.489738 113.878281 43.611462 116 46.228741 116 L 81.260994 116 C 83.878273 116 86 113.878281 86 111.261002 L 86 95.457069 L 98.482468 114.832474 L 119.762466 114.522827 L 70.200264 54.762466 L 108.483871 54.762466 C 112.082626 54.762466 115 51.8451 115 48.246338 C 115 44.647583 112.082626 41.730209 108.483871 41.730209 L 68.82946 41.730209 C 74.635551 39.538887 78.764969 33.930351 78.764969 27.357346 C 78.764969 18.875717 71.889252 12 63.407623 12 C 54.925999 12 48.050282 18.875717 48.050282 27.357346 C 48.050282 33.930351 52.179695 39.538887 57.985786 41.730209 L 18.366577 41.730209 C 14.767819 41.730209 11.85045 44.647583 11.85045 48.246338 C 11.85045 51.8451 14.767819 54.762466 18.366577 54.762466 L 57.324677 54.762466 L 7.762469 114.522827 L 30.16247 114.832474 L 41.489738 96.664108 L 41.489738 111.261002 Z M 50.860321 105.664856 C 50.860321 106.973495 51.921181 108.034355 53.22982 108.034355 L 74.259918 108.034355 C 75.568558 108.034355 76.629417 106.973495 76.629417 105.664856 L 76.629417 98.455383 C 76.629417 97.146744 75.568558 96.085884 74.259918 96.085884 L 53.22982 96.085884 C 51.921181 96.085884 50.860321 97.146744 50.860321 98.455383 L 50.860321 105.664856 Z M 46.816505 88.120239 L 50.277096 82.569626 C 50.916378 83.186523 51.786312 83.565987 52.744869 83.565987 L 74.070381 83.565987 C 75.40126 83.565987 76.561295 82.834503 77.170372 81.75164 L 81.273308 88.120255 L 81.260994 88.120239 L 46.816505 88.120239 Z M 72.233116 74.087982 L 55.565075 74.087982 L 63.76247 60.939774 L 72.233116 74.087982 Z"/>
</svg>
